# xmcd
# 
# Track frame offsets:
#     150
#     8672
#     20622
#     29427
# 
# Disc length: 516
# 
# Revision: 1
# Processed by: cddbd v1.5.2PL0 Copyright (c) Steve Scherf et al.
# Submitted via: BonkEnc v1.0.6
# 
DISCID=24020204
DTITLE=Guitar Wolf - 環七フィーバー
DYEAR=1998
DGENRE=Rock
TTITLE0=環七フィーバー
TTITLE1=ミッドナイト バイオレンス ロックンロール
TTITLE2=Brand New Cadillac
TTITLE3=土曜の夜はロックンロール
EXTD=
EXTT0=
EXTT1=
EXTT2=
EXTT3=
PLAYORDER=
